<svg width="518" height="137" viewBox="0 0 518 137" fill="none" xmlns="http://www.w3.org/2000/svg">
<path d="M57.2664 12L57.2664 125M10 69.6391L115 86.4549M18.4767 109.655L91.7174 48.6794" stroke="#ECFDFF" stroke-width="6" stroke-miterlimit="2.61313" stroke-linecap="round"/>
<path d="M159.885 91.64C157.667 91.64 155.747 91.3413 154.125 90.744C152.547 90.1467 151.245 89.4427 150.221 88.632C149.197 87.7787 148.429 86.9467 147.917 86.136C147.448 85.3253 147.192 84.7067 147.149 84.28C147.107 83.8107 147.256 83.4693 147.597 83.256C147.939 83 148.259 82.872 148.557 82.872H149.517C149.773 82.872 149.987 82.9147 150.157 83C150.371 83.0853 150.627 83.32 150.925 83.704C151.48 84.4293 152.12 85.1333 152.845 85.816C153.571 86.456 154.488 86.968 155.597 87.352C156.749 87.736 158.179 87.928 159.885 87.928C162.445 87.928 164.557 87.4373 166.221 86.456C167.885 85.4747 168.717 84.024 168.717 82.104C168.717 80.9093 168.376 79.9493 167.693 79.224C167.053 78.4987 165.944 77.8587 164.365 77.304C162.787 76.7493 160.653 76.1733 157.965 75.576C155.277 74.936 153.208 74.168 151.757 73.272C150.349 72.376 149.389 71.352 148.877 70.2C148.365 69.0053 148.109 67.7253 148.109 66.36C148.109 64.8667 148.536 63.416 149.389 62.008C150.243 60.5573 151.501 59.384 153.165 58.488C154.872 57.5493 157.005 57.08 159.565 57.08C161.656 57.08 163.427 57.3573 164.877 57.912C166.371 58.4667 167.587 59.1493 168.525 59.96C169.464 60.728 170.147 61.496 170.573 62.264C171.043 63.032 171.299 63.6507 171.341 64.12C171.384 64.5467 171.256 64.888 170.957 65.144C170.659 65.4 170.317 65.528 169.933 65.528H168.973C168.632 65.528 168.355 65.464 168.141 65.336C167.928 65.1653 167.736 64.952 167.565 64.696C167.139 64.0133 166.627 63.3733 166.029 62.776C165.432 62.1787 164.621 61.7093 163.597 61.368C162.616 60.984 161.272 60.792 159.565 60.792C157.005 60.792 155.107 61.3253 153.869 62.392C152.632 63.416 152.013 64.7387 152.013 66.36C152.013 67.2987 152.269 68.1307 152.781 68.856C153.293 69.5387 154.253 70.1787 155.661 70.776C157.069 71.3307 159.117 71.928 161.805 72.568C164.536 73.1653 166.691 73.912 168.269 74.808C169.848 75.6613 170.957 76.6853 171.597 77.88C172.28 79.0747 172.621 80.4827 172.621 82.104C172.621 83.8107 172.131 85.3893 171.149 86.84C170.211 88.2907 168.781 89.464 166.861 90.36C164.984 91.2133 162.659 91.64 159.885 91.64ZM195.225 91.64C192.324 91.64 189.913 91.0213 187.993 89.784C186.116 88.504 184.708 86.776 183.769 84.6C182.873 82.424 182.425 79.992 182.425 77.304V59.128C182.425 58.7013 182.553 58.36 182.809 58.104C183.065 57.848 183.407 57.72 183.833 57.72H184.921C185.348 57.72 185.689 57.848 185.945 58.104C186.201 58.36 186.329 58.7013 186.329 59.128V76.984C186.329 84.28 189.508 87.928 195.865 87.928C198.895 87.928 201.327 86.968 203.161 85.048C204.996 83.0853 205.913 80.3973 205.913 76.984V59.128C205.913 58.7013 206.041 58.36 206.297 58.104C206.553 57.848 206.895 57.72 207.321 57.72H208.409C208.836 57.72 209.177 57.848 209.433 58.104C209.689 58.36 209.817 58.7013 209.817 59.128V89.592C209.817 90.0187 209.689 90.36 209.433 90.616C209.177 90.872 208.836 91 208.409 91H207.321C206.895 91 206.553 90.872 206.297 90.616C206.041 90.36 205.913 90.0187 205.913 89.592V86.584C204.761 88.0773 203.375 89.2933 201.753 90.232C200.175 91.1707 197.999 91.64 195.225 91.64ZM223.511 91C223.084 91 222.743 90.872 222.487 90.616C222.231 90.36 222.103 90.0187 222.103 89.592V59.128C222.103 58.7013 222.231 58.36 222.487 58.104C222.743 57.848 223.084 57.72 223.511 57.72H224.599C225.025 57.72 225.367 57.848 225.623 58.104C225.879 58.36 226.007 58.7013 226.007 59.128V61.368C227.073 60.0027 228.332 58.9573 229.783 58.232C231.276 57.464 233.068 57.08 235.159 57.08C239.937 57.08 243.351 59.0853 245.399 63.096C246.38 61.2613 247.809 59.8107 249.687 58.744C251.607 57.6347 253.804 57.08 256.279 57.08C258.54 57.08 260.567 57.6133 262.359 58.68C264.193 59.704 265.623 61.24 266.647 63.288C267.713 65.336 268.247 67.896 268.247 70.968V89.592C268.247 90.0187 268.119 90.36 267.863 90.616C267.607 90.872 267.265 91 266.839 91H265.751C265.324 91 264.983 90.872 264.727 90.616C264.471 90.36 264.343 90.0187 264.343 89.592V71.608C264.343 68.792 263.937 66.616 263.127 65.08C262.316 63.5013 261.249 62.392 259.927 61.752C258.604 61.112 257.175 60.792 255.639 60.792C254.359 60.792 253.057 61.112 251.735 61.752C250.412 62.392 249.303 63.5013 248.407 65.08C247.553 66.616 247.127 68.792 247.127 71.608V89.592C247.127 90.0187 246.999 90.36 246.743 90.616C246.487 90.872 246.145 91 245.719 91H244.631C244.204 91 243.863 90.872 243.607 90.616C243.351 90.36 243.223 90.0187 243.223 89.592V71.608C243.223 68.792 242.796 66.616 241.943 65.08C241.089 63.5013 240.001 62.392 238.679 61.752C237.356 61.112 235.969 60.792 234.519 60.792C233.239 60.792 231.937 61.112 230.615 61.752C229.292 62.392 228.183 63.5013 227.287 65.08C226.433 66.616 226.007 68.7707 226.007 71.544V89.592C226.007 90.0187 225.879 90.36 225.623 90.616C225.367 90.872 225.025 91 224.599 91H223.511ZM294.93 91.64C292.285 91.64 290.088 91.1707 288.338 90.232C286.632 89.2507 285.245 88.0347 284.178 86.584V89.592C284.178 90.0187 284.05 90.36 283.794 90.616C283.538 90.872 283.197 91 282.77 91H281.682C281.256 91 280.914 90.872 280.658 90.616C280.402 90.36 280.274 90.0187 280.274 89.592V46.968C280.274 46.5413 280.402 46.2 280.658 45.944C280.914 45.688 281.256 45.56 281.682 45.56H282.77C283.197 45.56 283.538 45.688 283.794 45.944C284.05 46.2 284.178 46.5413 284.178 46.968V62.136C285.245 60.728 286.632 59.5333 288.338 58.552C290.088 57.5707 292.285 57.08 294.93 57.08C297.448 57.08 299.56 57.528 301.266 58.424C302.973 59.32 304.36 60.5147 305.426 62.008C306.493 63.5013 307.282 65.1653 307.794 67C308.306 68.8347 308.584 70.6907 308.626 72.568C308.669 73.208 308.69 73.8053 308.69 74.36C308.69 74.9147 308.669 75.512 308.626 76.152C308.584 78.0293 308.306 79.8853 307.794 81.72C307.282 83.5547 306.493 85.2187 305.426 86.712C304.36 88.2053 302.973 89.4 301.266 90.296C299.56 91.192 297.448 91.64 294.93 91.64ZM294.546 87.928C297.064 87.928 299.048 87.3733 300.498 86.264C301.949 85.1547 302.994 83.704 303.634 81.912C304.274 80.12 304.637 78.2 304.722 76.152C304.765 74.9573 304.765 73.7627 304.722 72.568C304.637 70.52 304.274 68.6 303.634 66.808C302.994 65.016 301.949 63.5653 300.498 62.456C299.048 61.3467 297.064 60.792 294.546 60.792C292.2 60.792 290.258 61.3467 288.722 62.456C287.229 63.5653 286.098 64.952 285.33 66.616C284.605 68.28 284.221 69.9653 284.178 71.672C284.136 72.312 284.114 73.144 284.114 74.168C284.114 75.192 284.136 76.024 284.178 76.664C284.264 78.4133 284.648 80.1627 285.33 81.912C286.056 83.6187 287.165 85.048 288.658 86.2C290.152 87.352 292.114 87.928 294.546 87.928ZM331.735 91.64C328.834 91.64 326.423 91.0213 324.503 89.784C322.626 88.504 321.218 86.776 320.279 84.6C319.383 82.424 318.935 79.992 318.935 77.304V59.128C318.935 58.7013 319.063 58.36 319.319 58.104C319.575 57.848 319.917 57.72 320.343 57.72H321.431C321.858 57.72 322.199 57.848 322.455 58.104C322.711 58.36 322.839 58.7013 322.839 59.128V76.984C322.839 84.28 326.018 87.928 332.375 87.928C335.405 87.928 337.837 86.968 339.671 85.048C341.506 83.0853 342.423 80.3973 342.423 76.984V59.128C342.423 58.7013 342.551 58.36 342.807 58.104C343.063 57.848 343.405 57.72 343.831 57.72H344.919C345.346 57.72 345.687 57.848 345.943 58.104C346.199 58.36 346.327 58.7013 346.327 59.128V89.592C346.327 90.0187 346.199 90.36 345.943 90.616C345.687 90.872 345.346 91 344.919 91H343.831C343.405 91 343.063 90.872 342.807 90.616C342.551 90.36 342.423 90.0187 342.423 89.592V86.584C341.271 88.0773 339.885 89.2933 338.263 90.232C336.685 91.1707 334.509 91.64 331.735 91.64ZM377.481 91C377.011 91 376.627 90.8507 376.329 90.552C376.03 90.2533 375.881 89.8693 375.881 89.4V47.16C375.881 46.6907 376.03 46.3067 376.329 46.008C376.627 45.7093 377.011 45.56 377.481 45.56H383.881C384.307 45.56 384.67 45.7093 384.969 46.008C385.267 46.3067 385.417 46.6907 385.417 47.16V89.4C385.417 89.8693 385.267 90.2533 384.969 90.552C384.67 90.8507 384.307 91 383.881 91H377.481ZM405.218 91.64C402.956 91.64 400.93 91.2133 399.138 90.36C397.346 89.464 395.916 88.2693 394.85 86.776C393.783 85.2827 393.25 83.6187 393.25 81.784C393.25 78.7547 394.466 76.3653 396.898 74.616C399.372 72.8667 402.615 71.672 406.626 71.032L415.01 69.816V68.664C415.01 67 414.626 65.72 413.858 64.824C413.09 63.928 411.746 63.48 409.826 63.48C408.418 63.48 407.287 63.7573 406.434 64.312C405.58 64.8667 404.919 65.592 404.45 66.488C404.108 67.0427 403.618 67.32 402.978 67.32H396.898C396.428 67.32 396.066 67.192 395.81 66.936C395.554 66.6373 395.447 66.296 395.49 65.912C395.49 65.1867 395.767 64.3333 396.322 63.352C396.876 62.3707 397.73 61.4107 398.882 60.472C400.034 59.4907 401.506 58.68 403.298 58.04C405.09 57.4 407.287 57.08 409.89 57.08C412.578 57.08 414.882 57.4 416.802 58.04C418.722 58.68 420.258 59.576 421.41 60.728C422.562 61.88 423.415 63.224 423.97 64.76C424.524 66.2533 424.802 67.8747 424.802 69.624V89.4C424.802 89.8693 424.652 90.2533 424.354 90.552C424.055 90.8507 423.671 91 423.202 91H416.93C416.503 91 416.14 90.8507 415.842 90.552C415.543 90.2533 415.394 89.8693 415.394 89.4V87.032C414.839 87.8427 414.092 88.6107 413.154 89.336C412.215 90.0187 411.084 90.5733 409.762 91C408.482 91.4267 406.967 91.64 405.218 91.64ZM407.778 84.984C409.186 84.984 410.444 84.6853 411.554 84.088C412.663 83.4907 413.538 82.5733 414.178 81.336C414.818 80.0987 415.138 78.5413 415.138 76.664V75.576L409.186 76.536C406.882 76.92 405.196 77.496 404.13 78.264C403.063 79.032 402.53 79.9707 402.53 81.08C402.53 81.8907 402.764 82.5947 403.234 83.192C403.746 83.7893 404.407 84.2373 405.218 84.536C406.028 84.8347 406.882 84.984 407.778 84.984ZM453.799 91.64C451.367 91.64 449.34 91.2347 447.719 90.424C446.097 89.5707 444.775 88.504 443.751 87.224V89.4C443.751 89.8693 443.601 90.2533 443.303 90.552C443.004 90.8507 442.62 91 442.151 91H436.071C435.601 91 435.217 90.8507 434.919 90.552C434.62 90.2533 434.471 89.8693 434.471 89.4V47.16C434.471 46.6907 434.62 46.3067 434.919 46.008C435.217 45.7093 435.601 45.56 436.071 45.56H442.663C443.089 45.56 443.452 45.7093 443.751 46.008C444.049 46.3067 444.199 46.6907 444.199 47.16V61.112C445.265 59.9173 446.588 58.9573 448.167 58.232C449.745 57.464 451.623 57.08 453.799 57.08C456.017 57.08 457.937 57.464 459.559 58.232C461.223 58.9573 462.631 60.0027 463.783 61.368C464.935 62.6907 465.809 64.2693 466.407 66.104C467.047 67.9387 467.388 69.9653 467.431 72.184C467.473 72.952 467.495 73.6773 467.495 74.36C467.495 75 467.473 75.7253 467.431 76.536C467.345 78.7973 466.983 80.8667 466.343 82.744C465.745 84.5787 464.871 86.1787 463.719 87.544C462.609 88.8667 461.223 89.8907 459.559 90.616C457.937 91.2987 456.017 91.64 453.799 91.64ZM450.919 83.96C452.54 83.96 453.82 83.6187 454.759 82.936C455.697 82.2107 456.359 81.272 456.743 80.12C457.169 78.968 457.425 77.7093 457.511 76.344C457.596 75.0213 457.596 73.6987 457.511 72.376C457.425 71.0107 457.169 69.752 456.743 68.6C456.359 67.448 455.697 66.5307 454.759 65.848C453.82 65.1227 452.54 64.76 450.919 64.76C449.383 64.76 448.124 65.1013 447.143 65.784C446.204 66.4667 445.479 67.3413 444.967 68.408C444.497 69.432 444.241 70.5413 444.199 71.736C444.156 72.504 444.135 73.2933 444.135 74.104C444.135 74.9147 444.156 75.7253 444.199 76.536C444.284 77.816 444.54 79.0107 444.967 80.12C445.393 81.2293 446.097 82.1467 447.079 82.872C448.06 83.5973 449.34 83.96 450.919 83.96ZM489.323 91.64C486.678 91.64 484.395 91.3413 482.475 90.744C480.598 90.104 479.062 89.336 477.867 88.44C476.715 87.544 475.841 86.648 475.243 85.752C474.689 84.8133 474.39 84.024 474.347 83.384C474.305 82.9147 474.454 82.5307 474.795 82.232C475.137 81.9333 475.478 81.784 475.819 81.784H482.027C482.155 81.784 482.283 81.8053 482.411 81.848C482.539 81.8907 482.667 81.9973 482.795 82.168C483.35 82.552 483.926 83 484.523 83.512C485.121 83.9813 485.803 84.3867 486.571 84.728C487.382 85.0693 488.385 85.24 489.579 85.24C490.987 85.24 492.182 84.9627 493.163 84.408C494.145 83.8107 494.635 82.9787 494.635 81.912C494.635 81.144 494.401 80.504 493.931 79.992C493.505 79.48 492.673 79.0107 491.435 78.584C490.198 78.1573 488.363 77.688 485.931 77.176C483.627 76.664 481.665 75.9813 480.043 75.128C478.422 74.2747 477.206 73.208 476.395 71.928C475.585 70.6053 475.179 69.0267 475.179 67.192C475.179 65.528 475.691 63.928 476.715 62.392C477.782 60.856 479.339 59.5973 481.387 58.616C483.435 57.592 485.995 57.08 489.067 57.08C491.414 57.08 493.462 57.3787 495.211 57.976C497.003 58.5307 498.497 59.256 499.691 60.152C500.886 61.0053 501.782 61.9013 502.379 62.84C503.019 63.736 503.361 64.5253 503.403 65.208C503.446 65.6347 503.318 65.9973 503.019 66.296C502.721 66.5947 502.379 66.744 501.995 66.744H496.299C496.086 66.744 495.894 66.7227 495.723 66.68C495.553 66.5947 495.403 66.488 495.275 66.36C494.763 66.0187 494.23 65.6347 493.675 65.208C493.163 64.7387 492.545 64.3333 491.819 63.992C491.094 63.6507 490.155 63.48 489.003 63.48C487.595 63.48 486.507 63.8 485.739 64.44C485.014 65.0373 484.651 65.8053 484.651 66.744C484.651 67.3413 484.843 67.896 485.227 68.408C485.611 68.92 486.401 69.3893 487.595 69.816C488.79 70.2427 490.603 70.6907 493.035 71.16C495.937 71.672 498.241 72.44 499.947 73.464C501.654 74.488 502.87 75.6827 503.595 77.048C504.363 78.3707 504.747 79.8 504.747 81.336C504.747 83.3413 504.15 85.1333 502.955 86.712C501.761 88.248 500.011 89.464 497.707 90.36C495.446 91.2133 492.651 91.64 489.323 91.64Z" fill="white"/>
</svg>
