<svg width="521" height="543" viewBox="0 0 521 543" fill="none" xmlns="http://www.w3.org/2000/svg">
<path opacity="0.37" d="M244.863 5L244.863 441M63 227.395L467 292.277M95.615 381.793L377.417 146.524" stroke="#6750A4" stroke-width="10" stroke-miterlimit="2.61313" stroke-linecap="round"/>
<g opacity="0.37">
<path d="M94.8853 510.64C92.6666 510.64 90.7466 510.341 89.1253 509.744C87.5466 509.147 86.2453 508.443 85.2213 507.632C84.1973 506.779 83.4293 505.947 82.9173 505.136C82.4479 504.325 82.1919 503.707 82.1493 503.28C82.1066 502.811 82.2559 502.469 82.5973 502.256C82.9386 502 83.2586 501.872 83.5573 501.872H84.5173C84.7733 501.872 84.9866 501.915 85.1573 502C85.3706 502.085 85.6266 502.32 85.9253 502.704C86.4799 503.429 87.1199 504.133 87.8453 504.816C88.5706 505.456 89.4879 505.968 90.5973 506.352C91.7493 506.736 93.1786 506.928 94.8853 506.928C97.4453 506.928 99.5573 506.437 101.221 505.456C102.885 504.475 103.717 503.024 103.717 501.104C103.717 499.909 103.376 498.949 102.693 498.224C102.053 497.499 100.944 496.859 99.3653 496.304C97.7866 495.749 95.6533 495.173 92.9653 494.576C90.2773 493.936 88.2079 493.168 86.7573 492.272C85.3493 491.376 84.3893 490.352 83.8773 489.2C83.3653 488.005 83.1093 486.725 83.1093 485.36C83.1093 483.867 83.5359 482.416 84.3893 481.008C85.2426 479.557 86.5013 478.384 88.1653 477.488C89.8719 476.549 92.0053 476.08 94.5653 476.08C96.6559 476.08 98.4266 476.357 99.8773 476.912C101.371 477.467 102.587 478.149 103.525 478.96C104.464 479.728 105.147 480.496 105.573 481.264C106.043 482.032 106.299 482.651 106.341 483.12C106.384 483.547 106.256 483.888 105.957 484.144C105.659 484.4 105.317 484.528 104.933 484.528H103.973C103.632 484.528 103.355 484.464 103.141 484.336C102.928 484.165 102.736 483.952 102.565 483.696C102.139 483.013 101.627 482.373 101.029 481.776C100.432 481.179 99.6213 480.709 98.5973 480.368C97.6159 479.984 96.2719 479.792 94.5653 479.792C92.0053 479.792 90.1066 480.325 88.8693 481.392C87.6319 482.416 87.0133 483.739 87.0133 485.36C87.0133 486.299 87.2693 487.131 87.7813 487.856C88.2933 488.539 89.2533 489.179 90.6613 489.776C92.0693 490.331 94.1173 490.928 96.8053 491.568C99.5359 492.165 101.691 492.912 103.269 493.808C104.848 494.661 105.957 495.685 106.597 496.88C107.28 498.075 107.621 499.483 107.621 501.104C107.621 502.811 107.131 504.389 106.149 505.84C105.211 507.291 103.781 508.464 101.861 509.36C99.9839 510.213 97.6586 510.64 94.8853 510.64ZM130.225 510.64C127.324 510.64 124.913 510.021 122.993 508.784C121.116 507.504 119.708 505.776 118.769 503.6C117.873 501.424 117.425 498.992 117.425 496.304V478.128C117.425 477.701 117.553 477.36 117.809 477.104C118.065 476.848 118.407 476.72 118.833 476.72H119.921C120.348 476.72 120.689 476.848 120.945 477.104C121.201 477.36 121.329 477.701 121.329 478.128V495.984C121.329 503.28 124.508 506.928 130.865 506.928C133.895 506.928 136.327 505.968 138.161 504.048C139.996 502.085 140.913 499.397 140.913 495.984V478.128C140.913 477.701 141.041 477.36 141.297 477.104C141.553 476.848 141.895 476.72 142.321 476.72H143.409C143.836 476.72 144.177 476.848 144.433 477.104C144.689 477.36 144.817 477.701 144.817 478.128V508.592C144.817 509.019 144.689 509.36 144.433 509.616C144.177 509.872 143.836 510 143.409 510H142.321C141.895 510 141.553 509.872 141.297 509.616C141.041 509.36 140.913 509.019 140.913 508.592V505.584C139.761 507.077 138.375 508.293 136.753 509.232C135.175 510.171 132.999 510.64 130.225 510.64ZM158.511 510C158.084 510 157.743 509.872 157.487 509.616C157.231 509.36 157.103 509.019 157.103 508.592V478.128C157.103 477.701 157.231 477.36 157.487 477.104C157.743 476.848 158.084 476.72 158.511 476.72H159.599C160.025 476.72 160.367 476.848 160.623 477.104C160.879 477.36 161.007 477.701 161.007 478.128V480.368C162.073 479.003 163.332 477.957 164.783 477.232C166.276 476.464 168.068 476.08 170.159 476.08C174.937 476.08 178.351 478.085 180.399 482.096C181.38 480.261 182.809 478.811 184.687 477.744C186.607 476.635 188.804 476.08 191.279 476.08C193.54 476.08 195.567 476.613 197.359 477.68C199.193 478.704 200.623 480.24 201.647 482.288C202.713 484.336 203.247 486.896 203.247 489.968V508.592C203.247 509.019 203.119 509.36 202.863 509.616C202.607 509.872 202.265 510 201.839 510H200.751C200.324 510 199.983 509.872 199.727 509.616C199.471 509.36 199.343 509.019 199.343 508.592V490.608C199.343 487.792 198.937 485.616 198.127 484.08C197.316 482.501 196.249 481.392 194.927 480.752C193.604 480.112 192.175 479.792 190.639 479.792C189.359 479.792 188.057 480.112 186.735 480.752C185.412 481.392 184.303 482.501 183.407 484.08C182.553 485.616 182.127 487.792 182.127 490.608V508.592C182.127 509.019 181.999 509.36 181.743 509.616C181.487 509.872 181.145 510 180.719 510H179.631C179.204 510 178.863 509.872 178.607 509.616C178.351 509.36 178.223 509.019 178.223 508.592V490.608C178.223 487.792 177.796 485.616 176.943 484.08C176.089 482.501 175.001 481.392 173.679 480.752C172.356 480.112 170.969 479.792 169.519 479.792C168.239 479.792 166.937 480.112 165.615 480.752C164.292 481.392 163.183 482.501 162.287 484.08C161.433 485.616 161.007 487.771 161.007 490.544V508.592C161.007 509.019 160.879 509.36 160.623 509.616C160.367 509.872 160.025 510 159.599 510H158.511ZM229.93 510.64C227.285 510.64 225.088 510.171 223.338 509.232C221.632 508.251 220.245 507.035 219.178 505.584V508.592C219.178 509.019 219.05 509.36 218.794 509.616C218.538 509.872 218.197 510 217.77 510H216.682C216.256 510 215.914 509.872 215.658 509.616C215.402 509.36 215.274 509.019 215.274 508.592V465.968C215.274 465.541 215.402 465.2 215.658 464.944C215.914 464.688 216.256 464.56 216.682 464.56H217.77C218.197 464.56 218.538 464.688 218.794 464.944C219.05 465.2 219.178 465.541 219.178 465.968V481.136C220.245 479.728 221.632 478.533 223.338 477.552C225.088 476.571 227.285 476.08 229.93 476.08C232.448 476.08 234.56 476.528 236.266 477.424C237.973 478.32 239.36 479.515 240.426 481.008C241.493 482.501 242.282 484.165 242.794 486C243.306 487.835 243.584 489.691 243.626 491.568C243.669 492.208 243.69 492.805 243.69 493.36C243.69 493.915 243.669 494.512 243.626 495.152C243.584 497.029 243.306 498.885 242.794 500.72C242.282 502.555 241.493 504.219 240.426 505.712C239.36 507.205 237.973 508.4 236.266 509.296C234.56 510.192 232.448 510.64 229.93 510.64ZM229.546 506.928C232.064 506.928 234.048 506.373 235.498 505.264C236.949 504.155 237.994 502.704 238.634 500.912C239.274 499.12 239.637 497.2 239.722 495.152C239.765 493.957 239.765 492.763 239.722 491.568C239.637 489.52 239.274 487.6 238.634 485.808C237.994 484.016 236.949 482.565 235.498 481.456C234.048 480.347 232.064 479.792 229.546 479.792C227.2 479.792 225.258 480.347 223.722 481.456C222.229 482.565 221.098 483.952 220.33 485.616C219.605 487.28 219.221 488.965 219.178 490.672C219.136 491.312 219.114 492.144 219.114 493.168C219.114 494.192 219.136 495.024 219.178 495.664C219.264 497.413 219.648 499.163 220.33 500.912C221.056 502.619 222.165 504.048 223.658 505.2C225.152 506.352 227.114 506.928 229.546 506.928ZM266.735 510.64C263.834 510.64 261.423 510.021 259.503 508.784C257.626 507.504 256.218 505.776 255.279 503.6C254.383 501.424 253.935 498.992 253.935 496.304V478.128C253.935 477.701 254.063 477.36 254.319 477.104C254.575 476.848 254.917 476.72 255.343 476.72H256.431C256.858 476.72 257.199 476.848 257.455 477.104C257.711 477.36 257.839 477.701 257.839 478.128V495.984C257.839 503.28 261.018 506.928 267.375 506.928C270.405 506.928 272.837 505.968 274.671 504.048C276.506 502.085 277.423 499.397 277.423 495.984V478.128C277.423 477.701 277.551 477.36 277.807 477.104C278.063 476.848 278.405 476.72 278.831 476.72H279.919C280.346 476.72 280.687 476.848 280.943 477.104C281.199 477.36 281.327 477.701 281.327 478.128V508.592C281.327 509.019 281.199 509.36 280.943 509.616C280.687 509.872 280.346 510 279.919 510H278.831C278.405 510 278.063 509.872 277.807 509.616C277.551 509.36 277.423 509.019 277.423 508.592V505.584C276.271 507.077 274.885 508.293 273.263 509.232C271.685 510.171 269.509 510.64 266.735 510.64ZM312.481 510C312.011 510 311.627 509.851 311.329 509.552C311.03 509.253 310.881 508.869 310.881 508.4V466.16C310.881 465.691 311.03 465.307 311.329 465.008C311.627 464.709 312.011 464.56 312.481 464.56H318.881C319.307 464.56 319.67 464.709 319.969 465.008C320.267 465.307 320.417 465.691 320.417 466.16V508.4C320.417 508.869 320.267 509.253 319.969 509.552C319.67 509.851 319.307 510 318.881 510H312.481ZM340.218 510.64C337.956 510.64 335.93 510.213 334.138 509.36C332.346 508.464 330.916 507.269 329.85 505.776C328.783 504.283 328.25 502.619 328.25 500.784C328.25 497.755 329.466 495.365 331.898 493.616C334.372 491.867 337.615 490.672 341.626 490.032L350.01 488.816V487.664C350.01 486 349.626 484.72 348.858 483.824C348.09 482.928 346.746 482.48 344.826 482.48C343.418 482.48 342.287 482.757 341.434 483.312C340.58 483.867 339.919 484.592 339.45 485.488C339.108 486.043 338.618 486.32 337.978 486.32H331.898C331.428 486.32 331.066 486.192 330.81 485.936C330.554 485.637 330.447 485.296 330.49 484.912C330.49 484.187 330.767 483.333 331.322 482.352C331.876 481.371 332.73 480.411 333.882 479.472C335.034 478.491 336.506 477.68 338.298 477.04C340.09 476.4 342.287 476.08 344.89 476.08C347.578 476.08 349.882 476.4 351.802 477.04C353.722 477.68 355.258 478.576 356.41 479.728C357.562 480.88 358.415 482.224 358.97 483.76C359.524 485.253 359.802 486.875 359.802 488.624V508.4C359.802 508.869 359.652 509.253 359.354 509.552C359.055 509.851 358.671 510 358.202 510H351.93C351.503 510 351.14 509.851 350.842 509.552C350.543 509.253 350.394 508.869 350.394 508.4V506.032C349.839 506.843 349.092 507.611 348.154 508.336C347.215 509.019 346.084 509.573 344.762 510C343.482 510.427 341.967 510.64 340.218 510.64ZM342.778 503.984C344.186 503.984 345.444 503.685 346.554 503.088C347.663 502.491 348.538 501.573 349.178 500.336C349.818 499.099 350.138 497.541 350.138 495.664V494.576L344.186 495.536C341.882 495.92 340.196 496.496 339.13 497.264C338.063 498.032 337.53 498.971 337.53 500.08C337.53 500.891 337.764 501.595 338.234 502.192C338.746 502.789 339.407 503.237 340.218 503.536C341.028 503.835 341.882 503.984 342.778 503.984ZM388.799 510.64C386.367 510.64 384.34 510.235 382.719 509.424C381.097 508.571 379.775 507.504 378.751 506.224V508.4C378.751 508.869 378.601 509.253 378.303 509.552C378.004 509.851 377.62 510 377.151 510H371.071C370.601 510 370.217 509.851 369.919 509.552C369.62 509.253 369.471 508.869 369.471 508.4V466.16C369.471 465.691 369.62 465.307 369.919 465.008C370.217 464.709 370.601 464.56 371.071 464.56H377.663C378.089 464.56 378.452 464.709 378.751 465.008C379.049 465.307 379.199 465.691 379.199 466.16V480.112C380.265 478.917 381.588 477.957 383.167 477.232C384.745 476.464 386.623 476.08 388.799 476.08C391.017 476.08 392.937 476.464 394.559 477.232C396.223 477.957 397.631 479.003 398.783 480.368C399.935 481.691 400.809 483.269 401.407 485.104C402.047 486.939 402.388 488.965 402.431 491.184C402.473 491.952 402.495 492.677 402.495 493.36C402.495 494 402.473 494.725 402.431 495.536C402.345 497.797 401.983 499.867 401.343 501.744C400.745 503.579 399.871 505.179 398.719 506.544C397.609 507.867 396.223 508.891 394.559 509.616C392.937 510.299 391.017 510.64 388.799 510.64ZM385.919 502.96C387.54 502.96 388.82 502.619 389.759 501.936C390.697 501.211 391.359 500.272 391.743 499.12C392.169 497.968 392.425 496.709 392.511 495.344C392.596 494.021 392.596 492.699 392.511 491.376C392.425 490.011 392.169 488.752 391.743 487.6C391.359 486.448 390.697 485.531 389.759 484.848C388.82 484.123 387.54 483.76 385.919 483.76C384.383 483.76 383.124 484.101 382.143 484.784C381.204 485.467 380.479 486.341 379.967 487.408C379.497 488.432 379.241 489.541 379.199 490.736C379.156 491.504 379.135 492.293 379.135 493.104C379.135 493.915 379.156 494.725 379.199 495.536C379.284 496.816 379.54 498.011 379.967 499.12C380.393 500.229 381.097 501.147 382.079 501.872C383.06 502.597 384.34 502.96 385.919 502.96ZM424.323 510.64C421.678 510.64 419.395 510.341 417.475 509.744C415.598 509.104 414.062 508.336 412.867 507.44C411.715 506.544 410.841 505.648 410.243 504.752C409.689 503.813 409.39 503.024 409.347 502.384C409.305 501.915 409.454 501.531 409.795 501.232C410.137 500.933 410.478 500.784 410.819 500.784H417.027C417.155 500.784 417.283 500.805 417.411 500.848C417.539 500.891 417.667 500.997 417.795 501.168C418.35 501.552 418.926 502 419.523 502.512C420.121 502.981 420.803 503.387 421.571 503.728C422.382 504.069 423.385 504.24 424.579 504.24C425.987 504.24 427.182 503.963 428.163 503.408C429.145 502.811 429.635 501.979 429.635 500.912C429.635 500.144 429.401 499.504 428.931 498.992C428.505 498.48 427.673 498.011 426.435 497.584C425.198 497.157 423.363 496.688 420.931 496.176C418.627 495.664 416.665 494.981 415.043 494.128C413.422 493.275 412.206 492.208 411.395 490.928C410.585 489.605 410.179 488.027 410.179 486.192C410.179 484.528 410.691 482.928 411.715 481.392C412.782 479.856 414.339 478.597 416.387 477.616C418.435 476.592 420.995 476.08 424.067 476.08C426.414 476.08 428.462 476.379 430.211 476.976C432.003 477.531 433.497 478.256 434.691 479.152C435.886 480.005 436.782 480.901 437.379 481.84C438.019 482.736 438.361 483.525 438.403 484.208C438.446 484.635 438.318 484.997 438.019 485.296C437.721 485.595 437.379 485.744 436.995 485.744H431.299C431.086 485.744 430.894 485.723 430.723 485.68C430.553 485.595 430.403 485.488 430.275 485.36C429.763 485.019 429.23 484.635 428.675 484.208C428.163 483.739 427.545 483.333 426.819 482.992C426.094 482.651 425.155 482.48 424.003 482.48C422.595 482.48 421.507 482.8 420.739 483.44C420.014 484.037 419.651 484.805 419.651 485.744C419.651 486.341 419.843 486.896 420.227 487.408C420.611 487.92 421.401 488.389 422.595 488.816C423.79 489.243 425.603 489.691 428.035 490.16C430.937 490.672 433.241 491.44 434.947 492.464C436.654 493.488 437.87 494.683 438.595 496.048C439.363 497.371 439.747 498.8 439.747 500.336C439.747 502.341 439.15 504.133 437.955 505.712C436.761 507.248 435.011 508.464 432.707 509.36C430.446 510.213 427.651 510.64 424.323 510.64Z" fill="#6750A4"/>
</g>
</svg>
