<svg width="70" height="70" viewBox="0 0 70 70" fill="none" xmlns="http://www.w3.org/2000/svg">
<path fill-rule="evenodd" clip-rule="evenodd" d="M47.7816 67.4062C47.7816 68.8055 48.942 69.9659 50.3413 69.9659L50.3072 70C53.6519 70 55.3242 70 56.8942 69.6928C60.0405 69.075 62.9315 67.5343 65.1988 65.2671C67.466 62.9998 69.0068 60.1087 69.6246 56.9625C69.9317 55.3925 69.9317 53.7201 69.9317 50.3754C69.9317 48.9761 68.7713 47.8157 67.372 47.8157C65.9727 47.8157 64.8123 48.9761 64.8123 50.3754C64.8123 53.3788 64.8123 54.8806 64.6075 55.9386C64.1824 58.0883 63.1282 60.0633 61.5787 61.6128C60.0292 63.1624 58.0542 64.2166 55.9044 64.6416C54.8464 64.8464 53.3447 64.8464 50.3413 64.8464C48.942 64.8464 47.7816 66.0068 47.7816 67.4062ZM19.6246 69.9659L19.5904 69.9317C20.9898 69.9317 22.1502 68.7713 22.1502 67.372C22.1502 65.9727 20.9898 64.8123 19.5904 64.8123C16.6212 64.8123 15.0853 64.8123 14.0273 64.6075C11.8776 64.1824 9.90256 63.1282 8.35303 61.5787C6.8035 60.0292 5.74929 58.0542 5.32423 55.9044C5.11945 54.8464 5.11945 53.3447 5.11945 50.3413C5.11945 48.942 3.95904 47.7816 2.55973 47.7816C1.16041 47.7816 0 48.942 0 50.3413C0 53.686 1.01714e-07 55.3584 0.307167 56.9283C0.929223 60.0727 2.47135 62.9615 4.73787 65.228C7.0044 67.4945 9.89314 69.0367 13.0375 69.6587C14.6075 69.9659 16.2799 69.9659 19.6246 69.9659ZM64.8464 19.6246C64.8464 21.0239 66.0068 22.1843 67.4061 22.1843L67.4403 22.2184C68.8396 22.2184 70 21.058 70 19.6587C70 16.314 70 14.6416 69.6928 13.0717C69.0708 9.92727 67.5286 7.03853 65.2621 4.772C62.9956 2.50548 60.1069 0.963353 56.9625 0.341297C55.3925 0.0341298 53.7201 0.0341297 50.3754 0.0341297C48.9761 0.0341297 47.8157 1.19454 47.8157 2.59386C47.8157 3.99317 48.9761 5.15358 50.3754 5.15358C53.3447 5.15358 54.8805 5.15358 55.9386 5.35836C60.3413 6.2116 63.7543 9.6587 64.6416 14.0614C64.8464 15.1195 64.8464 16.6212 64.8464 19.6246ZM0 19.6246C0 21.0239 1.16041 22.1843 2.55973 22.1843L2.59386 22.1502C3.99317 22.1502 5.15358 20.9898 5.15358 19.5904C5.15358 16.587 5.15358 15.0853 5.35836 14.0273C5.78342 11.8776 6.83763 9.90257 8.38716 8.35303C9.93669 6.8035 11.9117 5.74929 14.0614 5.32423C15.1195 5.11945 16.6212 5.11945 19.6246 5.11945C21.0239 5.11945 22.1843 3.95904 22.1843 2.55973C22.1843 1.16041 21.0239 0 19.6246 0C16.2799 0 14.6075 1.01714e-07 13.0375 0.307167C9.89125 0.924967 7.0002 2.4657 4.73295 4.73295C2.4657 7.0002 0.924967 9.89125 0.307167 13.0375C1.01714e-07 14.6075 0 16.2799 0 19.6246ZM31.57 52.901H38.3959C45.2901 52.901 49.1126 52.901 51.843 50.1365C54.6075 47.4061 54.6075 43.5836 54.6075 36.6894C54.6075 29.7952 54.5734 26.0068 51.843 23.2423C49.1126 20.4778 45.2901 20.4778 38.3959 20.4778H37.5427V16.2116C37.5427 14.8123 36.3823 13.6519 34.9829 13.6519C33.5836 13.6519 32.4232 14.8123 32.4232 16.2116V20.4778H31.57C24.6758 20.4778 20.8532 20.4778 18.1229 23.2423C15.3584 25.9727 15.3584 29.7952 15.3584 36.6894C15.3584 43.5836 15.3925 47.372 18.1229 50.1365C20.8532 52.901 24.6758 52.901 31.57 52.901ZM21.7406 26.8601C22.9352 25.6314 25.5973 25.5973 31.57 25.5973H38.3959C44.3345 25.5973 47.0307 25.6655 48.2253 26.8601C49.4539 28.0546 49.4881 30.7509 49.4881 36.6894C49.4881 42.628 49.4198 45.3242 48.2253 46.5188C47.0307 47.7474 44.3686 47.7816 38.3959 47.7816H31.57C25.6314 47.7816 22.9352 47.7133 21.7406 46.5188C20.5119 45.3242 20.4778 42.628 20.4778 36.6894C20.4778 30.7509 20.5461 28.0546 21.7406 26.8601ZM39.2491 34.9829C39.2491 36.3823 40.4096 37.5427 41.8089 37.5427C43.2082 37.5427 44.3686 36.3823 44.3686 34.9829V33.2765C44.3686 31.8771 43.2082 30.7167 41.8089 30.7167C40.4096 30.7167 39.2491 31.8771 39.2491 33.2765V34.9829ZM25.5973 34.9829C25.5973 36.3823 26.7577 37.5427 28.157 37.5427C29.5563 37.5427 30.7167 36.3823 30.7167 34.9829V33.2765C30.7167 31.8771 29.5563 30.7167 28.157 30.7167C26.7577 30.7167 25.5973 31.8771 25.5973 33.2765V34.9829Z" fill="url(#paint0_linear_9848_795)"/>
<defs>
<linearGradient id="paint0_linear_9848_795" x1="11" y1="11.5" x2="70.5" y2="73.5" gradientUnits="userSpaceOnUse">
<stop stop-color="#EAD6FF"/>
<stop offset="1" stop-color="#AA6AFE"/>
</linearGradient>
</defs>
</svg>
