<svg width="65" height="65" viewBox="0 0 65 65" fill="none" xmlns="http://www.w3.org/2000/svg">
<path d="M49.1463 6.34146C46.6236 6.34146 44.2041 7.34364 42.4202 9.12752C40.6363 10.9114 39.6341 13.3309 39.6341 15.8537C39.6341 18.3764 40.6363 20.7959 42.4202 22.5798C44.2041 24.3637 46.6236 25.3659 49.1463 25.3659C51.6691 25.3659 54.0886 24.3637 55.8725 22.5798C57.6564 20.7959 58.6585 18.3764 58.6585 15.8537C58.6585 13.3309 57.6564 10.9114 55.8725 9.12752C54.0886 7.34364 51.6691 6.34146 49.1463 6.34146ZM33.2927 15.8537C33.2927 11.649 34.963 7.61657 37.9361 4.64343C40.9093 1.67029 44.9417 0 49.1463 0C53.351 0 57.3834 1.67029 60.3566 4.64343C63.3297 7.61657 65 11.649 65 15.8537C65 20.0583 63.3297 24.0908 60.3566 27.0639C57.3834 30.037 53.351 31.7073 49.1463 31.7073C44.9417 31.7073 40.9093 30.037 37.9361 27.0639C34.963 24.0908 33.2927 20.0583 33.2927 15.8537ZM0 1.58537H28.5366V30.122H0V1.58537ZM6.34146 7.92683V23.7805H22.1951V7.92683H6.34146ZM0 36.4634H28.5366V65H0V36.4634ZM6.34146 42.8049V58.6585H22.1951V42.8049H6.34146ZM34.878 36.4634H63.4146V65H34.878V36.4634ZM57.0732 42.8049H41.2195V58.6585H57.0732V42.8049Z" fill="url(#paint0_linear_9848_788)"/>
<defs>
<linearGradient id="paint0_linear_9848_788" x1="32.5" y1="0" x2="32.5" y2="65" gradientUnits="userSpaceOnUse">
<stop stop-color="#F1E3FF"/>
<stop offset="1" stop-color="#AA6AFE"/>
</linearGradient>
</defs>
</svg>
