<svg width="70" height="70" viewBox="0 0 70 70" fill="none" xmlns="http://www.w3.org/2000/svg">
<path d="M4.82759 55.5172C7.4938 55.5172 9.65518 53.3559 9.65518 50.6897C9.65518 48.0234 7.4938 45.8621 4.82759 45.8621C2.16139 45.8621 0 48.0234 0 50.6897C0 53.3559 2.16139 55.5172 4.82759 55.5172Z" fill="url(#paint0_linear_9848_803)"/>
<path d="M27.7587 70.0002C24.1102 69.9944 20.5153 69.1209 17.271 67.4517C14.0267 65.7826 11.226 63.3656 9.10004 60.4005L13.0249 57.5908C14.7027 59.9333 16.9141 61.8426 19.4762 63.161C22.0382 64.4794 24.8773 65.1689 27.7587 65.1726C37.339 65.1726 45.278 57.6898 45.8308 48.136L50.6511 48.416C49.9511 60.5188 39.8928 70.0002 27.7587 70.0002Z" fill="url(#paint1_linear_9848_803)"/>
<path d="M62.7589 57.9311C65.4251 57.9311 67.5865 55.7697 67.5865 53.1035C67.5865 50.4373 65.4251 48.2759 62.7589 48.2759C60.0927 48.2759 57.9313 50.4373 57.9313 53.1035C57.9313 55.7697 60.0927 57.9311 62.7589 57.9311Z" fill="url(#paint2_linear_9848_803)"/>
<path d="M69.1334 43.6776L64.4893 42.3621C64.9445 40.7522 65.1744 39.0869 65.1724 37.4138C65.1724 27.4328 57.0524 19.3103 47.0689 19.3103C44.4981 19.3012 41.9556 19.8471 39.6151 20.9107L37.6261 16.5128C40.5916 15.1662 43.8121 14.4739 47.0689 14.4828C59.7124 14.4828 70 24.7704 70 37.4138C70 39.538 69.7103 41.6476 69.1334 43.6776ZM44.4475 32.7914L37.2061 25.55C36.2961 24.6424 35.082 24.1379 33.793 24.1379C32.5041 24.1379 31.2899 24.64 30.3799 25.5524L23.1385 32.7938C22.1972 33.7352 21.7241 34.9711 21.7241 36.2069C21.7241 37.4428 22.1972 38.6786 23.1385 39.62L30.3799 46.8614C31.2899 47.7738 32.5041 48.2759 33.793 48.2759C35.082 48.2759 36.2961 47.7738 37.2061 46.8614L44.4475 39.62C45.3889 38.6786 45.862 37.4428 45.862 36.2069C45.862 34.9711 45.3889 33.7352 44.4475 32.7938M33.793 43.4483L26.5517 36.2069L33.793 28.9655L41.0344 36.2069L33.793 43.4483Z" fill="url(#paint3_linear_9848_803)"/>
<path d="M33.7932 9.65518C36.4594 9.65518 38.6208 7.4938 38.6208 4.82759C38.6208 2.16139 36.4594 0 33.7932 0C31.127 0 28.9656 2.16139 28.9656 4.82759C28.9656 7.4938 31.127 9.65518 33.7932 9.65518Z" fill="url(#paint4_linear_9848_803)"/>
<path d="M14.5431 45.5773C10.8763 43.6222 7.81045 40.7065 5.67382 37.1424C3.53718 33.5784 2.41026 29.5003 2.41377 25.3448C2.41377 13.2107 11.8952 3.15481 23.9979 2.45239L24.2779 7.27274C20.3403 7.50784 16.5872 9.02226 13.5891 11.5858C10.591 14.1493 8.51198 17.6216 7.6681 21.4749C6.82423 25.3282 7.26166 29.3517 8.91389 32.9336C10.5661 36.5156 13.3428 39.46 16.8217 41.3193L14.5431 45.5773Z" fill="url(#paint5_linear_9848_803)"/>
<defs>
<linearGradient id="paint0_linear_9848_803" x1="4.82759" y1="45.8621" x2="4.82759" y2="55.5172" gradientUnits="userSpaceOnUse">
<stop stop-color="#EAD6FF"/>
<stop offset="1" stop-color="#AA6AFE"/>
</linearGradient>
<linearGradient id="paint1_linear_9848_803" x1="29.8756" y1="48.136" x2="29.8756" y2="70.0002" gradientUnits="userSpaceOnUse">
<stop stop-color="#EAD6FF"/>
<stop offset="1" stop-color="#AA6AFE"/>
</linearGradient>
<linearGradient id="paint2_linear_9848_803" x1="62.7589" y1="48.2759" x2="62.7589" y2="57.9311" gradientUnits="userSpaceOnUse">
<stop stop-color="#EAD6FF"/>
<stop offset="1" stop-color="#AA6AFE"/>
</linearGradient>
<linearGradient id="paint3_linear_9848_803" x1="45.862" y1="14.4827" x2="45.862" y2="48.2759" gradientUnits="userSpaceOnUse">
<stop stop-color="#EAD6FF"/>
<stop offset="1" stop-color="#AA6AFE"/>
</linearGradient>
<linearGradient id="paint4_linear_9848_803" x1="33.7932" y1="0" x2="33.7932" y2="9.65518" gradientUnits="userSpaceOnUse">
<stop stop-color="#EAD6FF"/>
<stop offset="1" stop-color="#AA6AFE"/>
</linearGradient>
<linearGradient id="paint5_linear_9848_803" x1="13.3458" y1="2.45239" x2="13.3458" y2="45.5773" gradientUnits="userSpaceOnUse">
<stop stop-color="#EAD6FF"/>
<stop offset="1" stop-color="#AA6AFE"/>
</linearGradient>
</defs>
</svg>
