<svg width="70" height="70" viewBox="0 0 70 70" fill="none" xmlns="http://www.w3.org/2000/svg">
<path d="M14.5863 2.18725C14.5862 1.78654 14.4761 1.39354 14.2679 1.05114C14.0598 0.70874 13.7616 0.430094 13.4058 0.245613C13.0501 0.0611324 12.6506 -0.0220957 12.2508 0.00501186C11.851 0.0321194 11.4663 0.168521 11.1388 0.399331C6.34667 3.77393 3.50583 6.71977 1.89583 9.56645C0.247917 12.4831 0.00291646 15.0994 0.00291646 17.4998C0.00291646 20.7957 1.56333 23.724 3.98417 25.5907C2.94265 26.5684 2.11793 27.7538 1.56333 29.0703C0.242083 32.089 0 35.7874 0 38.7536C0 43.6041 0.772917 51.0328 2.1875 57.2775C2.89333 60.3895 3.78583 63.3383 4.88542 65.5608C5.43375 66.6662 6.09 67.7075 6.89208 68.5008C7.7 69.3029 8.81708 70 10.2171 70C11.6171 70 12.7313 69.3029 13.5421 68.5008C14.3413 67.7075 14.9975 66.6633 15.5429 65.5579C16.6425 63.3383 17.5321 60.3895 18.235 57.2745C19.6467 51.0328 20.4167 43.6041 20.4167 38.7536C20.4167 35.7874 20.1804 32.0919 18.8621 29.0703C18.3078 27.7528 17.4831 26.5663 16.4412 25.5878C17.6792 24.6341 18.6817 23.4089 19.3714 22.0066C20.0611 20.6044 20.4197 19.0625 20.4196 17.4998C20.4196 14.2156 18.8096 11.9377 17.5175 10.1089L17.115 9.53436C15.7617 7.58019 14.5863 5.59977 14.5863 2.18725ZM10.1354 27.7082H10.2929C11.6025 27.7228 12.495 28.064 13.1483 28.5365C13.8347 29.0285 14.4025 29.7907 14.8517 30.8232C15.785 32.9611 16.0417 35.8807 16.0417 38.7566C16.0417 43.2687 15.3125 50.3708 13.9708 56.3149C13.2942 59.2958 12.495 61.8566 11.6229 63.6183C11.1854 64.505 10.7829 65.0766 10.4592 65.3946C10.3861 65.4712 10.3049 65.5397 10.2171 65.5987C10.1282 65.5398 10.046 65.4714 9.97208 65.3946C9.64833 65.0737 9.24583 64.505 8.80542 63.6154C7.93042 61.8537 7.13125 59.2929 6.45458 56.312C5.11 50.3708 4.375 43.2687 4.375 38.7536C4.375 35.8836 4.63458 32.964 5.57083 30.8261C6.02194 29.7955 6.59167 29.0333 7.28 28.5394C7.93333 28.064 8.82875 27.7228 10.1354 27.7082ZM10.29 23.3332H10.1383C8.6034 23.3147 7.13759 22.692 6.05872 21.6001C4.97985 20.5081 4.37489 19.0349 4.375 17.4998C4.375 15.4698 4.57625 13.711 5.70208 11.7219C6.57708 10.1702 8.07625 8.37353 10.6896 6.22102C11.3167 8.68853 12.4571 10.494 13.5129 12.0252L13.8629 12.524C15.2367 14.5015 16.0417 15.6623 16.0417 17.4998C16.0418 19.0334 15.438 20.5053 14.3611 21.597C13.2841 22.6888 11.8234 23.3125 10.29 23.3332ZM30.625 7.29144C27.0958 7.29144 23.8117 8.33561 21.0613 10.1323C20.6471 9.46728 20.2358 8.89561 19.8917 8.41144L19.5125 7.87477C19.1977 7.42893 18.901 6.97064 18.6229 6.50102C21.8185 4.40409 25.5078 3.18106 29.3232 2.95378C33.1386 2.7265 36.947 3.50289 40.3689 5.20561C43.7909 6.90833 46.707 9.47795 48.8267 12.6585C50.9465 15.839 52.1958 19.5195 52.4504 23.3332H59.0625C61.9628 23.3332 64.7444 24.4851 66.7954 26.5357C68.8465 28.5862 69.9992 31.3675 70 34.2678V53.2262C70.0004 54.6628 69.7178 56.0854 69.1683 57.4127C68.6188 58.74 67.8132 59.9461 66.7975 60.9621C65.7818 61.978 64.576 62.784 63.2488 63.3338C61.9216 63.8836 60.4991 64.1666 59.0625 64.1666H40.1042C37.2034 64.1666 34.4214 63.0143 32.3702 60.9631C30.319 58.9119 29.1667 56.1299 29.1667 53.2291V46.6199C27.0616 46.4806 24.9878 46.0376 23.0096 45.3045C23.1554 43.6712 23.2517 42.1137 23.3013 40.6903C25.1096 41.5245 27.0871 42.0611 29.1667 42.2332V34.2707C29.1667 31.3699 30.319 28.5879 32.3702 26.5367C34.4214 24.4855 37.2034 23.3332 40.1042 23.3332H48.0667C47.7009 18.9591 45.7048 14.8823 42.4742 11.9109C39.2435 8.93962 35.0143 7.2908 30.625 7.29144ZM52.3075 27.7082C51.6668 32.4598 49.4836 36.8696 46.0933 40.2599C42.703 43.6502 38.2933 45.8334 33.5417 46.4741V53.2291C33.5417 54.9696 34.2331 56.6388 35.4638 57.8695C36.6945 59.1002 38.3637 59.7916 40.1042 59.7916H59.0625C60.803 59.7916 62.4722 59.1002 63.7029 57.8695C64.9336 56.6388 65.625 54.9696 65.625 53.2291V34.2707C65.625 32.5302 64.9336 30.861 63.7029 29.6303C62.4722 28.3996 60.803 27.7082 59.0625 27.7082H52.3075ZM47.8829 27.7082H40.1042C38.3637 27.7082 36.6945 28.3996 35.4638 29.6303C34.2331 30.861 33.5417 32.5302 33.5417 34.2707V42.0495C37.1245 41.4422 40.4297 39.7355 42.9993 37.1659C45.5689 34.5963 47.2756 31.291 47.8829 27.7082Z" fill="url(#paint0_linear_9848_828)"/>
<defs>
<linearGradient id="paint0_linear_9848_828" x1="74.9219" y1="70" x2="0" y2="0" gradientUnits="userSpaceOnUse">
<stop stop-color="#AA6AFE"/>
<stop offset="1" stop-color="#F1E3FF"/>
</linearGradient>
</defs>
</svg>
