<svg width="73" height="73" viewBox="0 0 73 73" fill="none" xmlns="http://www.w3.org/2000/svg">
<path d="M25 13.5C25 18.9242 25 21.6343 23.3133 23.3133C21.6305 25 18.9242 25 13.5 25C8.07583 25 5.36567 25 3.68667 23.3133C2 21.6305 2 18.9242 2 13.5C2 8.07583 2 5.36567 3.68667 3.68667C5.3695 2 8.07583 2 13.5 2C18.9242 2 21.6343 2 23.3133 3.68667C25 5.3695 25 8.07583 25 13.5ZM25 13.5H36.5M59.5 25C54.0758 25 51.3657 25 49.6867 23.3133C48 21.6305 48 18.9242 48 13.5C48 8.07583 48 5.36567 49.6867 3.68667C51.3695 2 54.0758 2 59.5 2C64.9242 2 67.6343 2 69.3133 3.68667C71 5.3695 71 8.07583 71 13.5C71 18.9242 71 21.6343 69.3133 23.3133C67.6305 25 64.9242 25 59.5 25ZM59.5 25V36.5M48 59.5C48 54.0758 48 51.3657 49.6867 49.6867C51.3695 48 54.0758 48 59.5 48C64.9242 48 67.6343 48 69.3133 49.6867C71 51.3695 71 54.0797 71 59.5C71 64.9203 71 67.6305 69.3133 69.3133C67.6305 71 64.9203 71 59.5 71C54.0797 71 51.3695 71 49.6867 69.3133C48 67.6305 48 64.9242 48 59.5ZM48 59.5H36.5M13.5 48C18.9242 48 21.6343 48 23.3133 49.6867C25 51.3695 25 54.0758 25 59.5C25 64.9242 25 67.6343 23.3133 69.3133C21.6305 71 18.9242 71 13.5 71C8.07583 71 5.36567 71 3.68667 69.3133C2 67.6305 2 64.9242 2 59.5C2 54.0758 2 51.3657 3.68667 49.6867C5.3695 48 8.07583 48 13.5 48ZM13.5 48V36.5" stroke="url(#paint0_linear_9848_791)" stroke-width="4" stroke-linecap="round" stroke-linejoin="round"/>
<defs>
<linearGradient id="paint0_linear_9848_791" x1="36.5" y1="2" x2="36.5" y2="71" gradientUnits="userSpaceOnUse">
<stop stop-color="#DEBCFF"/>
<stop offset="1" stop-color="#AA6AFE"/>
</linearGradient>
</defs>
</svg>
