<svg width="431" height="88" viewBox="0 0 431 88" fill="none" xmlns="http://www.w3.org/2000/svg">
<path d="M44.0901 84.7427C44.1095 84.4007 44.1958 84.0659 44.3441 83.7574C44.4923 83.449 44.6996 83.1728 44.9541 82.9448C45.2086 82.7168 45.5053 82.5414 45.8272 82.4286C46.1492 82.3158 46.4901 82.2678 46.8305 82.2873C47.171 82.3069 47.5042 82.3936 47.8113 82.5425C48.1184 82.6915 48.3932 82.8997 48.6202 83.1553C48.8472 83.411 49.0218 83.709 49.1341 84.0325C49.2464 84.3559 49.2942 84.6984 49.2747 85.0404C49.2354 85.731 48.9246 86.3778 48.4107 86.8382C47.8967 87.2987 47.2218 87.5352 46.5342 87.4957C45.8467 87.4563 45.2029 87.144 44.7446 86.6277C44.2862 86.1115 44.0508 85.4334 44.0901 84.7427ZM22.8262 81.9207C22.9699 81.6883 23.1585 81.4871 23.3808 81.329C23.6032 81.171 23.8547 81.0592 24.1207 81.0003C24.3867 80.9414 24.6618 80.9366 24.9297 80.9861C25.1975 81.0356 25.4529 81.1385 25.6805 81.2887C25.9082 81.4388 26.1037 81.6333 26.2554 81.8605C26.4072 82.0878 26.5121 82.3432 26.5641 82.6118C26.616 82.8804 26.6139 83.1567 26.5579 83.4245C26.5019 83.6923 26.3932 83.9461 26.238 84.171C25.9367 84.6157 25.4735 84.9236 24.9483 85.0284C24.4232 85.1333 23.878 85.0266 23.4304 84.7314C22.9827 84.4363 22.6685 83.9762 22.5553 83.4505C22.4421 82.9247 22.5399 82.3753 22.8262 81.9207ZM68.4341 81.1174C68.6733 80.9955 68.934 80.9223 69.2014 80.9019C69.4688 80.8816 69.7376 80.9144 69.9924 80.9987C70.2471 81.0829 70.4828 81.2168 70.6858 81.3928C70.8889 81.5687 71.0555 81.7832 71.1758 82.0239C71.3577 82.386 71.4286 82.7942 71.3795 83.1968C71.3304 83.5994 71.1636 83.9784 70.9002 84.2857C70.6367 84.5931 70.2884 84.8151 69.8994 84.9236C69.5103 85.0321 69.098 85.0223 68.7145 84.8953C68.331 84.7684 67.9936 84.5301 67.745 84.2106C67.4963 83.891 67.3476 83.5045 67.3176 83.1C67.2875 82.6956 67.3776 82.2912 67.5763 81.9381C67.7751 81.5851 68.0736 81.3 68.4341 81.1174ZM27.7549 71.0684C27.9774 70.7115 28.2686 70.4028 28.6113 70.1603C28.9541 69.9179 29.3415 69.7465 29.751 69.6563C30.1604 69.5661 30.5837 69.5589 30.996 69.6351C31.4083 69.7112 31.8013 69.8692 32.152 70.0999C32.5028 70.3305 32.8042 70.6291 33.0386 70.9782C33.2731 71.3273 33.4359 71.7198 33.5174 72.1329C33.599 72.546 33.5977 72.9712 33.5137 73.3838C33.4296 73.7964 33.2645 74.1879 33.028 74.5356C32.5625 75.2198 31.8485 75.6934 31.0393 75.8546C30.2301 76.0159 29.3902 75.852 28.7 75.3981C28.0097 74.9443 27.5241 74.2366 27.3474 73.4271C27.1707 72.6176 27.317 71.7708 27.7549 71.0684ZM62.0322 69.8997C62.401 69.7108 62.8032 69.5968 63.2159 69.5642C63.6285 69.5316 64.0435 69.5811 64.4371 69.7099C64.8307 69.8386 65.1952 70.0441 65.5097 70.3145C65.8242 70.5849 66.0825 70.9149 66.2698 71.2857C66.5517 71.8406 66.6645 72.4665 66.5943 73.0854C66.5241 73.7042 66.2739 74.2886 65.875 74.7655C65.4761 75.2424 64.9462 75.5906 64.3514 75.7667C63.7567 75.9427 63.1235 75.9389 62.5309 75.7555C61.9383 75.5722 61.4126 75.2175 61.0195 74.7358C60.6265 74.2541 60.3834 73.6667 60.3206 73.047C60.2579 72.4274 60.3783 71.8028 60.6669 71.2515C60.9554 70.7002 61.3993 70.2465 61.943 69.9471L62.0322 69.8997ZM43.2954 67.9665C43.5084 67.5263 43.8056 67.1325 44.17 66.8077C44.5345 66.4829 44.959 66.2333 45.4195 66.0733C45.88 65.9133 46.3673 65.846 46.8536 65.8752C47.34 65.9044 47.8158 66.0295 48.254 66.2435C48.6922 66.4574 49.0842 66.756 49.4076 67.1221C49.7309 67.4882 49.9793 67.9148 50.1386 68.3773C50.2979 68.8399 50.3649 69.3294 50.3358 69.818C50.3067 70.3066 50.1822 70.7846 49.9692 71.2248C49.5391 72.1139 48.775 72.7949 47.8451 73.118C46.9152 73.4412 45.8956 73.38 45.0106 72.9479C44.1256 72.5158 43.4477 71.7482 43.126 70.814C42.8044 69.8799 42.8653 68.8556 43.2954 67.9665ZM10.4804 62.1974C11.0927 61.8895 11.8013 61.8372 12.4519 62.0517C13.1025 62.2662 13.6424 62.7302 13.954 63.3427C14.2656 63.9553 14.3238 64.6667 14.1157 65.322C13.9077 65.9774 13.4503 66.5237 12.8432 66.8419C12.2361 67.16 11.5285 67.2244 10.8744 67.0209C10.2203 66.8174 9.67268 66.3626 9.35084 65.7554C9.029 65.1482 8.95899 64.4379 9.15603 63.7791C9.35308 63.1203 9.80123 62.5664 10.4029 62.238L10.4804 62.1974ZM79.9844 62.9391C80.3618 62.3604 80.9526 61.9561 81.6268 61.815C82.301 61.674 83.0033 61.8077 83.5793 62.1869C84.1553 62.566 84.5578 63.1595 84.6983 63.8368C84.8387 64.514 84.7055 65.2196 84.3281 65.7983C84.1412 66.0848 83.9 66.3315 83.6182 66.5244C83.3364 66.7172 83.0196 66.8524 82.6857 66.9223C82.3519 66.9921 82.0077 66.9953 81.6727 66.9315C81.3377 66.8677 81.0184 66.7382 80.7332 66.5505C80.448 66.3627 80.2024 66.1204 80.0104 65.8373C79.8184 65.5542 79.6838 65.2359 79.6143 64.9006C79.5448 64.5652 79.5417 64.2194 79.6052 63.8828C79.6687 63.5463 79.7975 63.2256 79.9844 62.9391ZM36.4516 51.3713C37.6872 50.7014 39.1099 50.4646 40.4946 50.6985C41.8792 50.9323 43.1467 51.6234 44.0963 52.6623C45.046 53.7012 45.6236 55.0287 45.7377 56.4345C45.8519 57.8404 45.496 59.2443 44.7265 60.4241C44.154 61.3066 43.3707 62.031 42.448 62.5313C41.5254 63.0316 40.4927 63.2919 39.4442 63.2883C38.0401 63.2872 36.6766 62.8156 35.5694 61.9483C34.4621 61.081 33.6745 59.8675 33.331 58.4999C32.9876 57.1322 33.108 55.6886 33.6732 54.3975C34.2384 53.1063 35.2161 52.0414 36.4516 51.3713ZM52.3927 50.8944C53.8244 50.4314 55.3736 50.4973 56.7611 51.0803C58.1487 51.6633 59.2833 52.725 59.9605 54.074C60.7088 55.5741 60.8348 57.3108 60.3112 58.904C59.7875 60.4972 58.6568 61.8171 57.1666 62.5746C56.2855 63.0229 55.3131 63.2603 54.3255 63.268C52.8214 63.2682 51.3666 62.7286 50.2235 61.7465C49.0804 60.7644 48.3241 59.4044 48.0909 57.9117C47.8577 56.4189 48.163 54.8915 48.9518 53.6049C49.7405 52.3183 50.9608 51.357 52.3927 50.8944ZM22.008 54.4148C22.325 54.0413 22.7124 53.7344 23.1478 53.5117C23.5833 53.289 24.0583 53.1549 24.5455 53.1171C25.0326 53.0794 25.5225 53.1387 25.9868 53.2916C26.4511 53.4446 26.8808 53.6881 27.2511 54.0084C27.6214 54.3286 27.9251 54.7192 28.1448 55.1577C28.3644 55.5962 28.4957 56.0739 28.531 56.5635C28.5663 57.0531 28.505 57.5449 28.3506 58.0106C28.1962 58.4764 27.9517 58.9068 27.6312 59.2774C26.9878 60.0212 26.0774 60.4788 25.099 60.55C24.1207 60.6212 23.1541 60.3003 22.4107 59.6574C21.6673 59.0146 21.2075 58.1021 21.1321 57.1197C21.0566 56.1372 21.3715 55.1647 22.008 54.4148ZM65.8489 54.7015C66.1162 54.2923 66.4612 53.94 66.8641 53.6647C67.267 53.3895 67.7199 53.1966 68.1969 53.0972C68.674 52.9978 69.1659 52.9938 69.6445 53.0853C70.1231 53.1769 70.5791 53.3623 70.9864 53.6309C71.8075 54.1746 72.3806 55.023 72.5804 55.9903C72.7801 56.9576 72.5902 57.965 72.0521 58.792C71.5122 59.6183 70.6676 60.1954 69.7041 60.3962C68.7406 60.5969 67.7372 60.405 66.9146 59.8626C66.092 59.3201 65.5176 58.4717 65.3178 57.5038C65.1179 56.5359 65.309 55.5279 65.8489 54.7015ZM25.6614 43.6758C25.7319 42.4449 26.1581 41.2613 26.888 40.2701C27.6179 39.2788 28.6197 38.5229 29.7708 38.0949C30.9218 37.6669 32.1721 37.5854 33.3685 37.8605C34.565 38.1355 35.6556 38.755 36.5068 39.6432C37.3581 40.5314 37.933 41.6498 38.1612 42.8613C38.3894 44.0727 38.261 45.3248 37.7916 46.464C37.3222 47.6033 36.5323 48.5803 35.5186 49.2754C34.5049 49.9705 33.3114 50.3536 32.0843 50.3777L31.969 50.3785H31.6238C29.9703 50.2819 28.4206 49.5372 27.3079 48.3046C26.1953 47.0721 25.6086 45.4501 25.674 43.7874L25.6791 43.6724L25.6614 43.6758ZM55.4308 43.6048C55.5274 41.9261 56.2836 40.3546 57.5332 39.2359C58.7827 38.1171 60.4234 37.5426 62.0945 37.6387C62.921 37.6811 63.7308 37.8886 64.4766 38.249C65.2224 38.6094 65.8893 39.1154 66.4382 39.7376C67.2417 40.6416 67.7704 41.758 67.9617 42.9546C68.153 44.1512 67.9988 45.3779 67.5174 46.4891C67.036 47.6004 66.2476 48.5497 65.2456 49.2247C64.2436 49.8996 63.07 50.2719 61.8638 50.2973L61.7359 50.299H61.3697C59.6987 50.202 58.1344 49.4423 57.0207 48.187C55.907 46.9317 55.3352 45.2835 55.4308 43.6048ZM10.6496 43.8932C10.6667 43.4735 10.7668 43.0615 10.944 42.6811C11.1212 42.3008 11.3719 41.9596 11.6817 41.6775C11.9914 41.3954 12.3539 41.178 12.748 41.038C13.1422 40.898 13.5601 40.8382 13.9775 40.8621C14.3949 40.8859 14.8034 40.9929 15.1792 41.1769C15.555 41.3609 15.8906 41.6181 16.1665 41.9336C16.4424 42.2492 16.6531 42.6167 16.7862 43.0148C16.9193 43.4129 16.9723 43.8337 16.942 44.2526C16.8821 45.0815 16.5001 45.8534 15.8785 46.4019C15.257 46.9504 14.4456 47.2313 13.6197 47.1841C12.7937 47.137 12.0194 46.7654 11.4637 46.1497C10.908 45.534 10.6156 44.7235 10.6496 43.8932ZM76.7755 43.7494C76.7991 43.3343 76.904 42.9279 77.084 42.5535C77.2639 42.1791 77.5156 41.8439 77.8245 41.5672C78.1334 41.2905 78.4936 41.0776 78.8844 40.9407C79.2752 40.8038 79.6891 40.7455 80.1023 40.7693C80.5155 40.7931 80.92 40.8984 81.2927 41.0792C81.6655 41.26 81.9991 41.5128 82.2745 41.8231C82.55 42.1335 82.7619 42.4953 82.8982 42.8879C83.0345 43.2805 83.0924 43.6962 83.0688 44.1113C83.0211 44.9497 82.6439 45.7347 82.0201 46.2937C81.3963 46.8526 80.577 47.1397 79.7424 47.0919C78.9079 47.044 78.1264 46.665 77.57 46.0383C77.0136 45.4117 76.7278 44.5878 76.7755 43.7494ZM2.07413 42.0631L2.1499 42.0665C2.41753 42.0811 2.67966 42.1487 2.92123 42.2653C3.16279 42.3819 3.37904 42.5454 3.55754 42.7462C3.73605 42.9471 3.87329 43.1814 3.96138 43.4357C4.04948 43.69 4.08669 43.9593 4.07088 44.228C4.04771 44.6286 3.90784 45.0135 3.66865 45.3348C3.42947 45.6562 3.10152 45.8998 2.72561 46.0354C2.34969 46.171 1.94239 46.1926 1.55435 46.0975C1.16631 46.0024 0.814666 45.7948 0.543138 45.5006C0.271609 45.2063 0.0921817 44.8383 0.0271687 44.4424C-0.0378443 44.0465 0.0144261 43.6402 0.177479 43.2739C0.340532 42.9076 0.607174 42.5975 0.944244 42.3823C1.28131 42.167 1.67394 42.056 2.07329 42.0631M91.7132 41.8517L91.7974 41.8551C92.3342 41.8877 92.8364 42.1318 93.1951 42.5343C93.5537 42.9367 93.7398 43.4651 93.713 44.0046C93.6861 44.5441 93.4484 45.0512 93.0515 45.4157C92.6546 45.7801 92.1307 45.9726 91.5934 45.9512C91.0561 45.9298 90.5489 45.6964 90.1819 45.3015C89.815 44.9066 89.618 44.3823 89.6336 43.8423C89.6493 43.3023 89.8764 42.7904 90.2657 42.4177C90.6549 42.045 91.1756 41.8416 91.7132 41.8517ZM39.3886 24.7457C40.5563 24.74 41.7025 25.0611 42.6988 25.6728C43.6951 26.2846 44.5021 27.163 45.0295 28.2096C45.5169 29.1766 45.7495 30.253 45.705 31.3361C45.6606 32.4191 45.3405 33.4726 44.7755 34.3961C44.2104 35.3195 43.4192 36.0821 42.4773 36.611C41.5354 37.1398 40.4744 37.4174 39.3953 37.4171C38.2253 37.4204 37.0775 37.0956 36.0811 36.4794C35.0847 35.8631 34.2792 34.9798 33.7553 33.9288C33.2736 32.9627 33.0455 31.889 33.0928 30.8095C33.14 29.73 33.4611 28.6806 34.0253 27.7607C34.5896 26.8408 35.3785 26.081 36.3172 25.5534C37.2558 25.0257 38.313 24.7477 39.3886 24.7457ZM54.2742 24.7009C55.9477 24.7032 57.5518 25.3732 58.7336 26.5636C59.9154 27.754 60.5781 29.3672 60.5759 31.0484C60.5737 32.7297 59.9067 34.3411 58.7217 35.5284C57.5368 36.7156 55.9309 37.3813 54.2573 37.379C53.4287 37.3779 52.6083 37.2129 51.8432 36.8933C51.078 36.5737 50.383 36.1058 49.7979 35.5164C48.6161 34.326 47.9534 32.7128 47.9556 31.0315C47.9578 29.3503 48.6248 27.7388 49.8098 26.5516C50.9947 25.3644 52.6006 24.6987 54.2742 24.7009ZM21.6628 29.2083C21.927 28.7925 22.2707 28.4335 22.6741 28.1522C23.0774 27.8708 23.5323 27.6727 24.0124 27.5694C24.4926 27.466 24.9883 27.4594 25.471 27.5499C25.9537 27.6405 26.4137 27.8264 26.8243 28.0969C27.2349 28.3674 27.588 28.7171 27.8631 29.1257C28.1381 29.5344 28.3297 29.9938 28.4267 30.4773C28.5237 30.9609 28.5241 31.459 28.428 31.9427C28.3319 32.4265 28.1412 32.8862 27.8669 33.2954C27.3248 34.1162 26.4813 34.688 25.5208 34.8859C24.5602 35.0838 23.5608 34.8916 22.7409 34.3513C21.921 33.8111 21.3473 32.9668 21.1453 32.0029C20.9433 31.039 21.1294 30.0339 21.6628 29.2074M67.232 27.8248C67.667 27.6042 68.1411 27.472 68.627 27.4357C69.113 27.3994 69.6013 27.4597 70.064 27.6132C70.5267 27.7667 70.9547 28.0103 71.3236 28.3302C71.6925 28.65 71.995 29.0398 72.2138 29.4772C72.5438 30.1355 72.6721 30.8774 72.5824 31.609C72.4927 32.3406 72.1891 33.029 71.7099 33.5872C71.2308 34.1455 70.5976 34.5484 69.8904 34.7451C69.1833 34.9418 68.434 34.9235 67.7373 34.6924C67.0405 34.4613 66.4276 34.0278 65.9761 33.4468C65.5246 32.8657 65.2548 32.1633 65.2007 31.4282C65.1466 30.6931 65.3107 29.9584 65.6723 29.317C66.0339 28.6756 66.5766 28.1563 67.232 27.8248ZM9.39106 22.2029C9.578 21.9164 9.81927 21.6697 10.1011 21.4769C10.3829 21.2841 10.6998 21.149 11.0336 21.0792C11.3674 21.0095 11.7117 21.0064 12.0466 21.0703C12.3816 21.1342 12.7008 21.2637 12.986 21.4515C13.2711 21.6393 13.5167 21.8817 13.7086 22.1648C13.9005 22.4479 14.035 22.7662 14.1045 23.1016C14.1739 23.4369 14.1769 23.7827 14.1134 24.1192C14.0498 24.4558 13.9208 24.7764 13.7339 25.0629C13.3564 25.6415 12.7655 26.0458 12.0912 26.1868C11.417 26.3278 10.7146 26.1939 10.1386 25.8147C9.56257 25.4354 9.16013 24.8418 9.01978 24.1645C8.87944 23.4871 9.01269 22.7815 9.39022 22.2029M80.8961 21.1466C81.2007 20.9926 81.5324 20.9003 81.8725 20.8751C82.2125 20.8499 82.5542 20.8922 82.878 20.9996C83.2017 21.107 83.5013 21.2775 83.7595 21.5012C84.0177 21.7249 84.2295 21.9975 84.3828 22.3035C84.5362 22.6094 84.628 22.9427 84.6531 23.2843C84.6782 23.6259 84.6361 23.9692 84.5292 24.2944C84.4222 24.6197 84.2526 24.9206 84.0299 25.18C83.8072 25.4394 83.5358 25.6522 83.2313 25.8062C82.6162 26.1173 81.9033 26.1702 81.2494 25.9532C80.5955 25.7363 80.0542 25.2672 79.7445 24.6493C79.4349 24.0314 79.3822 23.3153 79.5982 22.6584C79.8141 22.0015 80.281 21.4577 80.8961 21.1466ZM43.0942 18.1919C43.1506 17.205 43.5949 16.2811 44.3294 15.6234C45.0639 14.9656 46.0284 14.6279 47.0107 14.6845C47.993 14.7412 48.9128 15.1875 49.5675 15.9253C50.2223 16.6632 50.5584 17.6321 50.5021 18.619C50.4457 19.6058 50.0014 20.5297 49.2669 21.1875C48.5324 21.8452 47.5679 22.183 46.5856 22.1263C45.6032 22.0697 44.6835 21.6234 44.0288 20.8855C43.374 20.1477 43.0378 19.1787 43.0942 18.1919ZM28.8442 12.444C29.2143 12.2527 29.6183 12.137 30.0331 12.1034C30.4479 12.0699 30.8652 12.1192 31.2609 12.2485C31.6566 12.3778 32.023 12.5845 32.3387 12.8568C32.6545 13.1291 32.9135 13.4615 33.1007 13.8348C33.2879 14.2081 33.3997 14.615 33.4296 15.032C33.4595 15.4489 33.4069 15.8677 33.2748 16.2641C33.1428 16.6606 32.9339 17.0268 32.6602 17.3417C32.3865 17.6566 32.0535 17.9139 31.6803 18.0989C30.9347 18.4683 30.0741 18.5269 29.2859 18.2618C28.4976 17.9968 27.8454 17.4297 27.4714 16.6839C27.0974 15.9381 27.0318 15.0741 27.2889 14.28C27.546 13.4859 28.105 12.826 28.8442 12.444ZM60.6794 13.4604C60.9042 13.108 61.1963 12.8038 61.5388 12.5654C61.8813 12.327 62.2674 12.1591 62.6748 12.0714C63.0823 11.9837 63.5029 11.9779 63.9126 12.0545C64.3223 12.131 64.7128 12.2883 65.0616 12.5172C65.4104 12.7462 65.7106 13.0423 65.9449 13.3884C66.1792 13.7346 66.3429 14.1239 66.4266 14.534C66.5103 14.944 66.5123 15.3667 66.4325 15.7775C66.3527 16.1884 66.1927 16.5793 65.9617 16.9276C65.5005 17.6232 64.7845 18.1077 63.9695 18.2755C63.1545 18.4434 62.3065 18.2811 61.6101 17.8239C60.9136 17.3668 60.4251 16.6518 60.2508 15.8346C60.0765 15.0174 60.2305 14.1641 60.6794 13.4604ZM23.4281 3.22796C23.668 3.10079 23.9307 3.02292 24.2009 2.99892C24.4712 2.97491 24.7434 3.00525 25.0018 3.08816C25.2602 3.17107 25.4996 3.30489 25.7059 3.48179C25.9123 3.6587 26.0814 3.87514 26.2036 4.11847C26.3257 4.36181 26.3983 4.62715 26.4172 4.899C26.436 5.17085 26.4008 5.44375 26.3135 5.70176C26.2262 5.95977 26.0885 6.1977 25.9086 6.40166C25.7287 6.60563 25.5102 6.77153 25.2657 6.88966C24.7838 7.12259 24.2301 7.1562 23.7237 6.98325C23.2173 6.81031 22.7987 6.44463 22.5579 5.96487C22.3172 5.4851 22.2734 4.92957 22.4362 4.41775C22.5989 3.90593 22.9551 3.47871 23.4281 3.22796ZM67.477 3.83176C67.6211 3.60076 67.8095 3.40094 68.0314 3.24398C68.2533 3.08703 68.5041 2.97608 68.7691 2.91764C69.0342 2.8592 69.3082 2.85444 69.5751 2.90362C69.842 2.95281 70.0965 3.05496 70.3236 3.20411C70.5508 3.35325 70.746 3.5464 70.898 3.77225C71.05 3.9981 71.1556 4.25212 71.2087 4.51946C71.2618 4.78679 71.2613 5.06208 71.2072 5.32923C71.1532 5.59637 71.0466 5.85 70.8938 6.07529C70.5965 6.52787 70.1328 6.84373 69.6043 6.95375C69.0757 7.06378 68.5253 6.95902 68.0734 6.66239C67.6216 6.36576 67.305 5.90142 67.1931 5.37095C67.0812 4.84047 67.1829 4.28705 67.4761 3.83176M45.91 0.646166C46.5601 0.417846 47.2737 0.45828 47.8941 0.758574C48.5144 1.05887 48.9906 1.59442 49.2179 2.24742C49.4452 2.90042 49.4049 3.61737 49.106 4.24056C48.8071 4.86375 48.274 5.34212 47.6239 5.57044C46.9739 5.79876 46.2602 5.75832 45.6399 5.45803C45.0196 5.15773 44.5434 4.62218 44.3161 3.96918C44.0888 3.31618 44.1291 2.59923 44.428 1.97604C44.7269 1.35286 45.26 0.874485 45.91 0.646166ZM409.857 22.394C422.994 22.394 431 29.391 431 44.1849C431 58.9797 423.007 65.9767 409.857 65.9767C396.706 65.9767 388.775 58.9797 388.775 44.1849C388.775 29.3901 396.719 22.394 409.857 22.394ZM131.54 22.3804C141.885 22.3804 149.892 27.5677 150.052 38.3321L150.053 38.6602H142.05C142.05 32.3981 137.771 29.0239 131.663 29.0239C123.312 29.0239 119.339 33.8349 119.254 43.2741L119.253 43.5617V44.7879C119.253 54.6077 123.17 59.3357 131.665 59.3357C138.073 59.3357 142.269 56.0258 142.353 50.0039L142.354 49.8212H150.053C150.053 60.8114 142.113 65.9657 131.541 65.9657C118.707 65.9657 111.253 59.3357 111.253 44.1748C111.253 29.3808 118.707 22.3804 131.54 22.3804ZM181.055 23.1289L197.381 65.2427H188.949L185.501 56.0943H166.326L162.967 65.2418H154.899L171.215 23.128L181.055 23.1289ZM227.324 23.1289C236.551 23.1289 241.013 28.103 241.013 35.8966C241.013 41.5473 238.559 45.6927 233.715 47.6826L233.558 47.746L242.523 65.2427H233.968L226.038 48.962H213.024V65.2418H205.201V23.128L227.324 23.1289ZM268.453 23.1289C281.1 23.1289 288.789 29.7588 288.789 44.1858C288.789 58.4681 281.246 65.1082 268.824 65.2401L268.445 65.2418H251.702V23.128L268.453 23.1289ZM319.115 23.1289L335.43 65.2427H326.996L323.576 56.0943H304.388L301.026 65.2418H292.962L309.284 23.128L319.115 23.1289ZM350.729 23.1289L368.939 48.2382L369.003 48.3337L369.14 48.5451L369.287 48.776L369.441 49.0238L369.762 49.5498L370.775 51.2445L370.92 51.4787L370.962 51.5455L371.007 51.6115L371.31 51.4906L371.306 51.2986L371.283 50.7117L371.228 49.4618L371.203 48.7904L371.194 48.4969L371.191 48.2475V48.1756H371.183V23.1289H378.696V65.2427H371.366L353.033 39.8898C352.902 39.6986 352.774 39.5052 352.649 39.3097L352.525 39.1118L352.402 38.9148L352.223 38.6188L351.994 38.234L351.884 38.0471L351.63 37.604L351.127 36.716L351.03 36.5511L350.993 36.492L350.964 36.4497L350.657 36.634L350.662 36.8074L350.739 38.4843L350.76 39.0222L350.774 39.4788L350.779 39.7579L350.781 39.889V65.2418H343.264V23.128L350.729 23.1289ZM409.857 29.0239C401.51 29.0239 396.875 33.8349 396.783 43.2843L396.782 43.5718V44.8606C396.782 54.4969 401.364 59.3467 409.857 59.3467C418.325 59.3467 422.902 54.5941 422.992 45.1481L422.994 44.8606V43.5718C422.994 33.9321 418.353 29.0239 409.857 29.0239M268.451 29.8205H259.531V58.5501H268.452C276.317 58.5501 280.646 54.0994 280.793 45.0728L280.796 44.798V43.5718C280.796 34.4573 276.47 29.9119 268.688 29.8214L268.451 29.8205ZM176.041 29.8688H175.738L175.642 30.1461L174.426 33.8882L174.067 34.9782L173.745 35.9364L173.619 36.3042L173.377 37.0002L173.263 37.3241L173.152 37.6277L168.769 49.4534L183.006 49.45L178.73 37.9084L178.681 37.7807L178.579 37.5076L178.472 37.215L178.303 36.7414L178.127 36.2357L177.946 35.7046L177.761 35.155L177.452 34.218L176.176 30.2704L176.053 29.9051L176.041 29.8688ZM314.111 29.8688H313.799L313.705 30.1461L312.489 33.8882L312.129 34.9782L311.808 35.9364L311.682 36.3042L311.441 37.0002L311.325 37.3241L311.216 37.6277L306.839 49.4534L321.076 49.45L316.8 37.9084L316.7 37.6463L316.596 37.3638L316.43 36.9038L316.256 36.4082L316.015 35.7046L315.768 34.9689L315.521 34.218L315.128 33.0104L314.204 30.147L314.111 29.8688ZM226.709 29.8205H213.024V42.3431H226.709C230.744 42.3431 233.126 39.8907 233.126 35.8975C233.126 32.136 230.976 29.8721 226.849 29.8222L226.709 29.8205Z" fill="white"/>
</svg>
